<svg width="512" height="512" viewBox="0 0 512 512" fill="none" xmlns="http://www.w3.org/2000/svg">
  <path d="M462.551 169.229C435.199 104.151 377.667 55.1074 307.873 38.1306C326.734 68.7815 339.469 115.939 346.07 168.758L462.55 168.754L462.551 169.229Z" fill="#2ECC71"/>
  <path d="M204.126 38.1313C134.333 55.1082 76.7998 104.151 49.4482 169.23H165.456C172.529 116.411 185.263 69.2555 204.124 38.1313H204.126Z" fill="#2ECC71"/>
  <path d="M315.419 169.229C303.63 83.402 276.278 32 256.001 32C235.724 32 208.372 83.4012 196.583 169.229H315.419Z" fill="#2ECC71"/>
  <path d="M160.269 255.999C160.269 237.138 161.213 218.272 162.628 199.881H39.546C34.8289 217.802 32 236.664 32 255.999C32 275.335 34.829 294.196 39.546 312.118H162.628C161.213 293.727 160.269 274.862 160.269 255.999Z" fill="#2ECC71"/>
  <path d="M190.922 255.999C190.922 275.806 191.866 294.671 193.28 312.118H318.72C320.135 294.671 321.079 275.806 321.079 255.999C321.079 236.193 320.135 217.328 318.72 199.881H193.28C191.866 217.328 190.922 236.193 190.922 255.999Z" fill="#2ECC71"/>
  <path d="M307.873 473.869C377.666 457.362 434.728 407.849 462.551 343.241L346.071 343.245C339.469 395.59 326.735 442.748 307.874 473.872L307.873 473.869Z" fill="#2ECC71"/>
  <path d="M472.454 199.882H349.372C350.787 218.273 351.731 237.138 351.731 256C351.731 274.863 350.787 293.728 349.372 312.119H472.454C477.171 294.198 480 275.336 480 256C480 236.665 477.171 217.803 472.454 199.882Z" fill="#2ECC71"/>
  <path d="M49.4482 342.77C76.7998 407.848 134.332 456.892 204.126 473.868C185.264 443.218 172.53 396.06 165.929 343.241L49.4491 343.245L49.4482 342.77Z" fill="#2ECC71"/>
  <path d="M196.581 342.77C208.371 428.597 235.722 479.999 255.999 479.999C276.276 479.999 303.628 428.598 315.417 342.77H196.581Z" fill="#2ECC71"/>
</svg>
